<svg width="300" height="367.148" xmlns="http://www.w3.org/2000/svg" preserveAspectRatio="xMidYMid meet">
 <metadata>Created by potrace 1.14, written by Peter Selinger 2001-2017</metadata>
 <g>
  <title>background</title>
  <rect fill="none" id="canvas_background" height="402" width="582" y="-1" x="-1"/>
 </g>
 <g>
  <title>Layer 1</title>
  <rect fill=" none" height="367" width="300" y="0" x="0" id="svgEditorBackground"/>
  <path fill="#593e15" id="svg_38" d="m136.4,1.5c-26,5.7 -46.7,26.9 -50,51.6c-0.7,5.3 -0.9,5.3 -15.4,8.4c-16.1,3.4 -27.6,4.5 -49.4,4.5l-21.9,0l0.6,43.7c0.6,46.7 1.4,56 6.3,78.3c2.2,9.7 9.7,33 14.5,44.6c1.2,2.9 1,3.7 -2.8,11c-6.1,11.7 -7.6,18.6 -7,32.4c0.8,20.3 8.7,36 24.6,49.2c13.7,11.4 35.3,15.7 54.4,10.8l7.7,-1.9l9.3,7c9.3,7.2 25.3,17.2 36.6,22.9l6.1,3l6.9,-3.5c10.9,-5.4 24.7,-14.1 35.4,-22.1l9.8,-7.3l7.6,1.9c32.9,8.5 64.3,-8.8 76.4,-42c2.1,-5.7 2.3,-8.3 2.3,-21c0.1,-13.4 -0.1,-15 -2.7,-21.3c-1.5,-3.8 -4,-8.9 -5.6,-11.3l-3,-4.4l2.9,-6.5c4.4,-9.8 10.5,-28.9 13.4,-41.6c4.9,-22 5.7,-31.6 6.3,-78.2l0.6,-43.7l-21.6,0c-23.6,0 -37.6,-1.4 -54.2,-5.6c-5.4,-1.4 -10,-2.6 -10,-2.7c-0.1,-0.1 -0.7,-3.4 -1.4,-7.2c-5.7,-33.1 -42.3,-56.5 -76.7,-49zm25.1,6c8.7,1.9 19.4,6.9 26.3,12.5c10.5,8.5 18.6,23.4 20.1,37l0.6,5.5l5.3,1.7c2.9,1 11.4,3 19,4.5c11.8,2.3 16.9,2.7 37.6,3.1l23.9,0.4l-0.7,39.6c-0.4,24.2 -1.3,43.8 -2.1,50.3c-3,23 -8.3,42.8 -17,64.3l-4.4,10.8l2.3,3.2c12.4,16.5 14,39.8 4.1,59.6c-6.8,13.6 -17.5,23.4 -31.1,28.7c-6,2.3 -8.4,2.7 -18.4,2.7c-9.3,0.1 -12.9,-0.3 -18.8,-2.2l-7.2,-2.3l-8.3,6.4c-10.1,8 -22.5,16 -33.9,22.2l-8.8,4.7l-8.7,-4.7c-11.5,-6.2 -23.9,-14.2 -34,-22.2l-8.3,-6.4l-7.2,2.3c-10.4,3.3 -26.5,3.3 -36,0c-13.1,-4.5 -25.9,-16 -32.1,-28.6c-5.1,-10.3 -6.2,-15.4 -6.2,-27.6c0,-13.6 2.2,-21.4 8.5,-30.4l3.9,-5.6l-5.3,-13.2c-8.5,-21.2 -13.4,-40.2 -16,-61.9c-1.1,-8.5 -1.6,-24.4 -1.8,-50.9l-0.3,-38.5l23.5,-0.6c24.5,-0.7 34,-1.8 51.6,-6.4c5.3,-1.4 9.7,-2.5 9.9,-2.5c0.1,0 0.5,-2.8 0.8,-6.3c1.8,-18.7 14.1,-35.7 32.3,-44.4c12.5,-6 24.2,-7.5 36.9,-4.8z"/>
  <path fill="#593e15" id="svg_39" d="m147.1,28.1l-2.4,9l-3.6,-3.3c-2,-1.8 -5.6,-5.1 -8,-7.3c-3.1,-2.9 -4.2,-3.5 -3.7,-2c1.7,6.1 4.3,18.5 3.7,18.5c-0.3,0 -4.8,-1.1 -9.9,-2.4l-9.4,-2.4l2.3,2.6c1.3,1.5 4.5,5 7.2,7.8l4.8,5.1l-8.8,2.3c-4.8,1.3 -9.1,2.6 -9.6,3c-0.4,0.3 2.6,1.7 6.5,2.9c13.5,4.4 13,3.5 5.9,8.7c-3.3,2.5 -6.1,4.8 -6.1,4.9c0,0.5 5.7,-1.9 16.5,-6.9l9.1,-4.3l-0.4,-4.1c-0.3,-3.6 0,-4.6 2.6,-7.2c2.1,-2.1 4,-3 6.2,-3c2.2,0 4.1,0.9 6.2,3c2.6,2.6 2.9,3.7 2.6,7.1l-0.4,4.1l6,3c7.5,3.8 20.6,9.8 20.6,9.4c0,-0.1 -2.9,-2.6 -6.6,-5.6l-6.5,-5.3l9.8,-3.2l9.8,-3.2l-3.9,-1.1c-2.2,-0.6 -6.3,-1.7 -9.3,-2.3c-2.9,-0.7 -5.3,-1.5 -5.3,-1.9c0,-0.3 2.3,-3.3 5.2,-6.6c9.1,-10.4 8.8,-9.6 3.2,-7.9c-2.7,0.8 -7,2.1 -9.6,2.9c-2.7,0.8 -4.8,1.3 -4.8,1.1c0,-0.1 0.9,-4.7 2,-10c1.1,-5.3 2,-9.9 2,-10c0,-0.2 -3,2.8 -6.7,6.6c-3.6,3.8 -6.9,6.9 -7.3,6.9c-0.3,0 -1.9,-4.1 -3.4,-9c-1.6,-5 -3.1,-9 -3.5,-9c-0.4,0 -1.7,4.1 -3,9.1z"/>
  <path fill="#593e15" id="svg_40" d="m125,78.6c-21.4,9.7 -52.5,16.7 -80.9,18.1l-13.3,0.6l0.5,29.1c0.3,16 0.9,30.3 1.2,31.8l0.7,2.8l49.4,0l49.4,0l0,-42.5c0,-23.4 -0.3,-42.5 -0.7,-42.4c-0.5,0 -3.3,1.1 -6.3,2.5z"/>
  <path fill="#593e15" id="svg_41" d="m168,118.5l0,42.5l49.4,0c46.1,0 49.4,-0.1 50.1,-1.8c0.4,-0.9 1,-15.2 1.3,-31.8l0.5,-30.1l-12.9,-0.6c-27.5,-1.3 -54.4,-7.1 -78.4,-16.8c-5.2,-2.2 -9.5,-3.9 -9.7,-3.9c-0.2,0 -0.3,19.1 -0.3,42.5z"/>
  <path fill="#593e15" id="e1_path" d="m67,180l0,12l4.5,0c4.5,0 4.5,0 4.5,0.313559l0,-7.313559l11.911017,-0.254237c0.088983,0.254237 0.088983,0.254237 0.025424,-5.86017c0.063559,0.314407 -0.036441,0.214407 -11.038983,-0.022034c-0.36017,-0.172881 -0.333899,0.226272 -0.20678,-4.651695c8.199153,-0.211017 -4.094068,-0.220339 8.109322,-0.011864l8.2,-0.3l0,-2.9l0,-3l-13,0l-13,0l0,12z"/>
  <path fill="#593e15" id="svg_42" d="m203,180l0,12l4.8,0l4.8,0l-0.018644,-7.059322l-0.781356,0.059322l12.265254,-0.063559c-0.065254,0.063559 -0.065254,0.063559 -0.128813,-5.86017c0.063559,0.123729 -0.036441,0.023729 -11.166102,-0.022034c-0.105932,-5.194068 -0.016102,0.035594 -0.079661,-5.033051c-0.127119,0.10678 0.037288,0.097458 8.109322,0.178814l8.136441,-0.045763l0.063559,-3.154237l0,-3l-13,0l-13,0l0,12z"/>
  <path fill="#593e15" id="svg_43" d="m43.5,205.2c5.1,13.7 6.9,17.8 12.7,29.3c15.8,31.4 37.1,56.7 67.6,80.3l8.2,6.3l0,-61l0,-61.1l-45.5,0l-45.4,0l2.4,6.2z"/>
  <path fill="#593e15" id="svg_44" d="m168,260.1c0,48.8 0.3,61 1.3,60.2c44.6,-34.1 68.6,-65.4 86.2,-112.6l3.3,-8.7l-45.4,0l-45.4,0l0,61.1z"/>
  <path fill="#593e15" id="svg_45" d="m52,241.2c0,0.4 1.4,4.2 3,8.5c1.7,4.2 3,8.1 3,8.6c0,0.5 -4.5,0.5 -10,0.2c-5.5,-0.4 -10,-0.5 -10,-0.3c0,0.3 3.4,2.9 7.5,5.8c4.1,2.9 7.3,5.6 7,5.9c-0.2,0.4 -4.3,2.4 -9,4.6c-9.9,4.4 -9.7,4.8 2.8,6c4.2,0.4 7.7,1.1 7.7,1.4c0,0.4 -2.5,4.3 -5.5,8.6c-3,4.3 -5.3,8 -5.2,8.2c0.2,0.1 4.1,-1.3 8.6,-3.2c8.1,-3.4 10.4,-3.7 9.6,-1.2c-0.2,0.7 -0.6,5 -1,9.7l-0.7,8.5l6.1,-7.5c6,-7.3 8.1,-9.2 8.1,-7.2c0,0.5 1.7,4.5 3.7,8.8l3.6,7.9l1.7,-8.5c0.9,-4.7 1.9,-9.1 2.1,-9.8c0.3,-0.8 3.2,0.8 8.4,4.4l8,5.7l-7.5,-7.9c-4.1,-4.4 -9.1,-9.7 -11.1,-12c-3.1,-3.5 -4.1,-4 -6.7,-3.6c-4.3,0.6 -9.2,-4.2 -9.2,-9c0,-1.9 0.4,-3.8 1,-4.4c0.6,-0.6 0,-2.3 -1.7,-4.9c-1.5,-2.2 -5.3,-8.5 -8.5,-14c-3.2,-5.5 -5.8,-9.7 -5.8,-9.3z"/>
  <path fill="#593e15" id="svg_46" d="m245.4,245.2c-0.9,1.8 -4.3,7.6 -7.4,12.9c-5.4,8.8 -5.8,9.8 -5.3,14.2c0.5,4.2 0.3,4.9 -2.6,7.7c-2.3,2.4 -3.8,3.1 -6,2.8c-2.5,-0.2 -4.3,1.2 -14.2,11.7c-11.6,12.2 -11.4,12.4 2,2.3c3.2,-2.4 3.6,-1.6 5.2,8.9c0.7,4.6 1.5,8.3 1.9,8.3c0.3,0 2.1,-3.6 3.9,-8c1.9,-4.4 3.7,-8.3 4.1,-8.5c0.4,-0.3 3.4,2.7 6.5,6.5c3.2,3.9 5.9,7 6.2,7c0.2,0 0.1,-4.3 -0.3,-9.5c-0.4,-5.2 -0.4,-9.5 -0.1,-9.5c0.3,0 4.3,1.6 8.8,3.5c4.5,1.9 8.4,3.3 8.6,3.2c0.1,-0.2 -2.2,-3.9 -5.2,-8.3c-3,-4.3 -5.4,-8.2 -5.5,-8.5c0,-0.4 3.5,-1 7.7,-1.4c12.5,-1.2 12.7,-1.6 2.8,-6c-4.7,-2.2 -8.8,-4.2 -9,-4.6c-0.3,-0.3 2.9,-3 7,-5.9c4.1,-2.9 7.5,-5.5 7.5,-5.8c0,-0.2 -4.5,-0.1 -10,0.3c-5.5,0.3 -10,0.4 -10,0.1c0,-0.3 1.3,-4.2 2.9,-8.6c3.1,-8.4 3.3,-10.2 0.5,-4.8z"/>
  <path fill="#593e15" id="svg_47" d="m134,191.458484l10.5,0c12.2,0 17.8,-1.7 20,-6.1c3.2,-6.1 0.8,-14 -5,-16.5c-2.3,-0.9 -7.2,-1.4 -14.5,-1.4l-11,0"/>
  <path fill="#CEAE43" id="e13_path" d="m142.060302,179.695045m0,6.000972l5.25085,0c6.100988,0 8.901442,-0.850138 10.00162,-3.050495c1.600259,-3.050494 0.400065,-7.001134 -2.500405,-8.251336c-1.150186,-0.450073 -3.600583,-0.700113 -7.251174,-0.700113l-5.500891,0l0,6.000972z"/>
 </g>
</svg>